<?xml version="1.0" standalone="no"?>
<!DOCTYPE svg PUBLIC "-//W3C//DTD SVG 20010904//EN"
 "http://www.w3.org/TR/2001/REC-SVG-20010904/DTD/svg10.dtd">
<svg version="1.0" xmlns="http://www.w3.org/2000/svg"
 width="700.000000pt" height="700.000000pt" viewBox="0 0 700.000000 700.000000"
 preserveAspectRatio="xMidYMid meet">
<metadata>
Created by potrace 1.11, written by Peter Selinger 2001-2013
</metadata>
<g transform="translate(0.000000,700.000000) scale(0.100000,-0.100000)"
fill="#000000" stroke="none">
<path d="M3260 6737 c-3 -3 -41 -8 -85 -11 -221 -18 -518 -91 -720 -178 -430
-183 -724 -488 -865 -897 -35 -104 -33 -95 -60 -211 -25 -108 -57 -324 -75
-505 -2 -22 -7 -64 -10 -92 -3 -29 -7 -79 -11 -110 -11 -122 -35 -294 -50
-369 -8 -44 -18 -92 -21 -109 -10 -61 -86 -274 -140 -395 -95 -212 -174 -344
-301 -505 -53 -67 -170 -204 -183 -215 -37 -30 -149 -185 -197 -270 -87 -158
-91 -359 -10 -479 32 -47 86 -102 125 -128 12 -8 19 -21 16 -28 -3 -10 9 -18
40 -26 58 -14 156 -113 192 -191 21 -47 23 -64 19 -143 -2 -49 -6 -103 -8
-120 -3 -16 -8 -52 -12 -80 -3 -27 -8 -59 -10 -70 -2 -11 -7 -44 -10 -74 -3
-30 -8 -64 -10 -75 -3 -12 -4 -69 -4 -129 0 -239 70 -425 214 -569 45 -46 166
-128 196 -134 3 0 14 -4 25 -8 81 -31 115 -38 250 -50 60 -5 296 19 323 33 12
6 41 14 64 16 22 3 48 11 58 20 9 8 30 15 46 15 16 0 45 4 64 10 19 5 60 13
91 16 l55 6 1 -77 c1 -61 6 -87 27 -129 28 -58 91 -117 151 -142 56 -23 201
-31 675 -39 157 -3 305 -7 330 -10 25 -2 99 -7 165 -10 66 -3 135 -7 153 -9
17 -3 71 -8 120 -11 48 -4 96 -9 107 -11 18 -4 204 -14 310 -18 63 -2 149 19
199 48 152 89 168 295 31 415 -82 72 -233 106 -470 106 -141 0 -212 -5 -425
-31 -100 -12 -319 -7 -407 10 -12 3 -50 7 -84 11 -35 4 -66 8 -69 10 -3 2 -30
6 -60 9 -30 3 -66 8 -80 11 -14 3 -50 8 -80 11 -30 4 -62 10 -71 15 -8 4 -28
42 -44 84 -16 42 -35 81 -42 87 -7 6 -13 16 -13 22 0 6 -28 39 -63 71 -97 92
-167 121 -372 155 -49 8 -217 6 -232 -3 -5 -3 -30 -8 -58 -11 -96 -12 -125
-18 -131 -27 -3 -5 -24 -9 -47 -9 -23 0 -69 -7 -102 -15 -33 -9 -110 -18 -171
-21 -101 -5 -112 -4 -135 15 -20 17 -21 20 -6 21 25 0 22 7 -24 51 l-42 40 6
107 c4 59 11 132 16 162 6 30 13 69 16 85 3 17 8 50 11 75 3 25 7 56 10 70 3
14 7 84 9 155 4 105 0 146 -16 214 -23 97 -78 221 -137 309 -58 84 -220 244
-284 278 -15 8 -4 27 84 139 56 72 126 159 156 195 101 122 216 275 266 353
41 66 140 260 180 357 15 36 34 79 41 95 43 93 108 342 120 455 3 36 8 76 10
90 2 14 6 54 10 90 4 36 8 76 10 90 3 14 7 48 9 75 6 57 13 119 31 268 3 23 7
53 10 67 2 14 7 45 10 70 31 229 132 517 235 671 59 87 177 203 280 274 47 32
87 62 90 66 16 22 274 131 347 145 21 5 41 9 46 10 4 1 16 2 26 3 11 0 26 7
34 15 32 32 440 39 662 11 79 -10 120 -16 135 -20 8 -2 35 -7 60 -10 118 -17
513 -132 640 -188 19 -8 62 -25 95 -37 129 -49 408 -226 574 -365 180 -149
398 -362 472 -460 136 -181 245 -406 284 -590 14 -63 25 -127 31 -180 6 -62 7
-303 0 -314 -2 -3 -7 -35 -11 -71 -14 -129 -103 -449 -184 -656 -70 -180 -276
-541 -358 -629 -10 -11 -26 -31 -36 -44 -19 -28 -138 -162 -178 -201 -222
-215 -327 -292 -554 -407 -99 -50 -305 -143 -317 -143 -7 0 -1 517 6 585 14
122 25 169 91 380 30 94 68 217 85 275 27 94 105 318 113 326 1 2 64 5 139 8
237 9 407 69 511 181 42 44 93 142 111 209 20 80 15 196 -13 260 -52 118 -128
169 -250 165 -106 -3 -269 -65 -329 -126 -7 -7 -23 -18 -34 -24 -61 -33 -206
-182 -298 -308 l-15 -20 -67 23 -67 23 26 24 c54 50 102 121 129 191 26 66 28
85 29 203 0 119 -2 134 -25 179 -33 65 -113 146 -172 175 -57 27 -127 29 -185
6 -88 -35 -202 -195 -238 -333 -19 -74 -25 -201 -13 -256 5 -21 6 -41 3 -44
-14 -14 -144 -2 -247 22 -105 25 -104 24 -70 60 113 118 151 280 103 436 -57
185 -187 277 -328 235 -25 -8 -62 -25 -82 -39 -123 -85 -210 -334 -168 -481 8
-27 16 -57 18 -65 2 -8 -2 -14 -9 -15 -8 0 -19 -8 -26 -17 -14 -19 -18 -14
-64 72 -13 25 -56 95 -96 155 -114 173 -205 247 -302 247 -73 1 -121 -29 -166
-102 -64 -105 -57 -295 18 -442 66 -130 207 -220 378 -241 21 -2 32 -11 37
-28 4 -13 17 -55 28 -94 26 -85 68 -281 76 -351 3 -28 8 -61 10 -75 23 -114
23 -700 0 -864 -11 -82 -27 -189 -30 -208 -2 -12 -16 -92 -30 -177 -39 -239
-51 -277 -132 -424 -32 -58 -34 -108 -4 -168 22 -45 68 -81 110 -85 42 -4 84
25 133 90 71 94 132 231 153 342 9 50 23 137 29 185 3 25 7 56 10 70 20 110
34 228 51 438 4 41 8 83 10 93 11 54 18 188 17 314 -2 205 -16 503 -27 565 -3
14 -7 45 -10 70 -7 63 -34 205 -51 270 -18 71 -19 70 14 70 16 0 37 7 48 15
27 21 44 18 73 -9 62 -58 248 -137 356 -152 28 -3 59 -8 70 -10 36 -8 199 -5
248 5 48 9 49 8 98 -34 52 -47 138 -107 207 -145 30 -17 41 -29 36 -40 -29
-72 -94 -251 -94 -259 0 -5 -23 -69 -51 -142 -79 -207 -99 -279 -114 -405 -3
-27 -7 -60 -10 -74 -24 -157 -38 -388 -39 -657 l-1 -142 -45 -10 c-76 -17
-161 -30 -245 -36 -202 -14 -231 -22 -300 -86 -120 -111 -121 -315 -1 -421 54
-48 113 -61 240 -54 61 3 120 8 132 10 12 2 45 7 75 11 74 9 102 13 184 30 39
8 81 16 95 19 51 9 218 55 295 81 370 124 739 329 1004 558 114 98 290 287
404 432 41 52 111 157 158 235 31 52 76 124 101 160 194 280 335 622 397 965
30 168 33 196 36 395 8 542 -165 994 -544 1420 -113 127 -293 299 -399 380
-18 14 -45 35 -60 48 -38 32 -242 170 -332 224 -259 156 -617 307 -895 378
-98 25 -215 51 -250 56 -16 2 -41 6 -55 9 -44 9 -73 13 -140 20 -36 4 -69 9
-73 12 -10 6 -471 16 -477 10z"/>
</g>
</svg>
