<?xml version="1.0" encoding="utf-8"?>
<!-- Generator: Adobe Illustrator 21.0.0, SVG Export Plug-In . SVG Version: 6.00 Build 0)  -->
<svg version="1.1" id="Lag_1" xmlns="http://www.w3.org/2000/svg" xmlns:xlink="http://www.w3.org/1999/xlink" x="0px" y="0px"
	 viewBox="0 0 40 40" style="enable-background:new 0 0 40 40;" xml:space="preserve">
<style type="text/css">
	.st0{fill:#0A1829;}
</style>
<g>
	<path class="st0" d="M36.5,31.9c-2.1-2.1-4.1-4.2-6.2-6.2c-0.7-0.7-1.5-0.8-2.4-0.5c-0.3,0.1-0.5,0.1-0.7-0.2
		c0-0.1-0.1-0.1-0.2-0.2c-0.7-0.7-0.7-0.7-0.1-1.4c0,0,0,0,0-0.1c2.6-4.1,3-8.5,0.9-12.9C25.5,5.7,21.6,3.2,16.3,3
		C12.2,3,8.7,4.6,6.1,7.8c-2,2.4-3,5.2-3,8c0,2.9,0.7,5.3,2.2,7.5c2.1,3.1,5,5,8.8,5.6c2.2,0.4,4.3,0.1,6.3-0.6
		c1.3-0.4,2.4-1,3.5-1.8c0.2-0.2,0.4-0.2,0.6,0s0.4,0.5,0.7,0.7c0.2,0.1,0.2,0.3,0.1,0.5c-0.3,1-0.2,1.8,0.5,2.6
		c2,2.1,4.1,4.1,6.2,6.2c0.9,0.9,2.3,0.9,3.3,0c0.4-0.4,0.9-0.8,1.3-1.3C37.3,34.3,37.4,32.9,36.5,31.9z M16.1,26.7
		c-5.9,0-10.6-4.7-10.6-10.6S10.2,5.5,16.1,5.5s10.6,4.7,10.6,10.6S22,26.7,16.1,26.7z"/>
	<path class="st0" d="M9.3,12.9c0,2.8,1,5.2,3,7.1c2,1.9,4.4,2.7,7.2,2.6c-0.8,0.6-1.7,1-2.7,1.1c-2,0.3-3.8-0.1-5.4-1.2
		C7.9,20,7.6,15.5,9.3,12.9z"/>
</g>
</svg>
